<?xml version="1.0" encoding="UTF-8" standalone="no"?>
<!-- Created with Inkscape (http://www.inkscape.org/) -->

<svg
   xmlns:dc="http://purl.org/dc/elements/1.1/"
   xmlns:cc="http://creativecommons.org/ns#"
   xmlns:rdf="http://www.w3.org/1999/02/22-rdf-syntax-ns#"
   xmlns:svg="http://www.w3.org/2000/svg"
   xmlns="http://www.w3.org/2000/svg"
   xmlns:sodipodi="http://sodipodi.sourceforge.net/DTD/sodipodi-0.dtd"
   xmlns:inkscape="http://www.inkscape.org/namespaces/inkscape"
   width="66.14035mm"
   height="66.152664mm"
   version="1.1"
   viewBox="0 0 66.140352 66.152663"
   id="svg1287"
   sodipodi:docname="decorative_black.svg"
   inkscape:version="0.92.4 (f8dce91, 2019-08-02)">
  <defs
     id="defs1291" />
  <sodipodi:namedview
     pagecolor="#ffffff"
     bordercolor="#666666"
     borderopacity="1"
     objecttolerance="10"
     gridtolerance="10"
     guidetolerance="10"
     inkscape:pageopacity="0"
     inkscape:pageshadow="2"
     inkscape:window-width="1920"
     inkscape:window-height="1004"
     id="namedview1289"
     showgrid="false"
     fit-margin-top="0"
     fit-margin-left="0"
     fit-margin-right="0"
     fit-margin-bottom="0"
     inkscape:zoom="1.6623909"
     inkscape:cx="237.90781"
     inkscape:cy="130.98713"
     inkscape:window-x="0"
     inkscape:window-y="0"
     inkscape:window-maximized="1"
     inkscape:current-layer="g1285" />
  <metadata
     id="metadata661">
    <rdf:RDF>
      <cc:Work
         rdf:about="">
        <dc:format>image/svg+xml</dc:format>
        <dc:type
           rdf:resource="http://purl.org/dc/dcmitype/StillImage" />
        <dc:title></dc:title>
      </cc:Work>
    </rdf:RDF>
  </metadata>
  <g
     transform="translate(-84.202885,-73.752124)"
     id="g1285">
    <g
       transform="matrix(0.74985577,0,0,0.75870024,13.610749,-16.376115)"
       id="g1283">
      <g
         id="g1298">
        <g
           id="g1279"
           transform="translate(39.026,112.61)">
          <ellipse
             id="ellipse1273"
             ry="38.952"
             rx="39.458"
             cy="49.778999"
             cx="99.217003"
             style="fill:#ff0000;stroke:#000000;stroke-width:9.28810024;stroke-linejoin:round" />
          <path
             id="path1275"
             d="m 146.78,168.99 -27.387,-14.795 7.8571,30.12 -19.002,-24.655 -5.0729,30.711 -7.331,-30.252 -17.126,25.993 5.6073,-30.618 -26.217,16.78 17.576,-25.691 -30.776,4.6657 26.506,-16.321 -30.013,-8.2553 30.853,-4.1287 -24.06,-19.749 29.865,8.7771 -13.948,-27.828 23.713,20.165 -1.4232,-31.095 13.461,28.067 11.347,-28.986 0.8811,31.115 22.156,-21.864 -11.851,28.783 29.133,-10.962 -22.533,21.475 31.073,1.8349 -29.32,10.453 27.641,14.315 -31.037,-2.3761 z"
             transform="matrix(0.72132,0,0,0.71221,26.49,-43.502)"
             inkscape:connector-curvature="0"
             style="fill:#ff0000;stroke:#ffffff;stroke-width:4.91870022;stroke-linejoin:bevel" />
          <ellipse
             id="ellipse1277"
             ry="38.952"
             rx="39.458"
             cy="49.778999"
             cx="99.217003"
             style="stroke:#000000;stroke-width:1.3405;stroke-linejoin:round" />
        </g>
        <path
           id="path1281"
           d="m 170.17,163.09 c -0.20355,-0.36168 -0.49091,-0.70979 -1.0056,-0.74586 -0.57217,-0.0401 -0.57014,-0.0695 -0.62628,-0.68519 -0.005,-0.0549 -1.2e-4,-0.11244 -0.0153,-0.16423 -0.0687,-0.23438 0.0204,-0.36862 0.2418,-0.46194 0.3049,-0.12849 0.53462,-0.35835 0.68705,-0.64807 0.3696,-0.70254 0.37834,-1.4193 0.0827,-2.1563 -0.25362,-0.63221 -0.91144,-0.96962 -1.5673,-0.77906 -0.69429,0.20175 -0.5584,0.32446 -0.94196,-0.40696 -0.0305,-0.058 -0.0502,-0.12173 -0.0815,-0.17925 -0.0837,-0.15403 -0.037,-0.29066 0.0925,-0.37287 0.83393,-0.52946 0.94675,-2.0959 0.30575,-2.8956 -0.3839,-0.47894 -1.1246,-0.75884 -1.686,-0.421 -0.28706,0.17272 -0.46789,0.41862 -0.61702,0.69921 -0.11988,0.22552 -0.24814,0.28833 -0.47108,0.10814 -0.21191,-0.17127 -0.37293,-0.39397 -0.60906,-0.54372 -0.13715,-0.087 -0.096,-0.24707 0.009,-0.37518 0.6363,-0.77356 0.70349,-1.6155 0.29093,-2.5105 -0.40092,-0.86972 -1.4736,-1.1692 -2.1922,-0.35029 -0.35561,0.40528 -0.51111,0.87786 -0.53994,1.4011 -0.0195,0.35427 -0.0716,0.3955 -0.41696,0.27836 -0.10281,-0.0349 -0.20126,-0.0889 -0.30651,-0.10918 -0.47138,-0.091 -0.51959,-0.19638 -0.34302,-0.63783 0.30235,-0.75591 0.24635,-1.5096 -0.13193,-2.2184 -0.30617,-0.57366 -1.0471,-0.74465 -1.6189,-0.49306 -0.99305,0.43702 -1.08,1.5724 -0.88478,2.4638 0.06,0.27389 0.0264,0.38262 -0.25984,0.41677 -0.0871,0.0104 -0.17695,-0.002 -0.26414,0.008 -0.81967,0.095 -0.81126,0.004 -0.68682,-0.80043 0.14628,-0.9463 -0.27594,-1.6277 -0.84241,-1.8974 -0.9739,-0.46364 -1.7447,0.11673 -1.9915,1.0193 -0.16646,0.60873 -0.14939,1.1914 0.13853,1.758 0.13374,0.26316 0.0591,0.40241 -0.23297,0.46485 -0.20044,0.0428 -0.38969,0.13695 -0.58505,0.20508 -0.1583,0.0552 -0.31186,0.0786 -0.47023,-0.0192 -0.42495,-0.26262 -0.86146,-0.5006 -1.3239,-0.69713 -0.58945,-0.25051 -1.1862,-0.4853 -1.8074,-0.62589 -1.0967,-0.24816 -2.2013,-0.46266 -3.3375,-0.4303 -0.75986,0.0216 -1.5228,-0.0145 -2.2796,0.0407 -0.31889,0.0233 -0.63309,0.0714 -0.92712,-0.0423 -0.23773,-0.0919 -0.46527,-0.16819 -0.7225,-0.17612 -0.25011,-0.008 -0.39348,-0.22012 -0.36116,-0.47326 0.11608,-0.90964 0.13029,-1.8127 -0.18832,-2.6924 -0.28151,-0.77727 -0.68075,-1.4691 -1.3505,-1.9883 -0.17366,-0.13464 -0.56137,-0.22201 -0.5491,-0.51456 v -2.4539 h 2.3161 v -2.8013 h -2.3161 v -2.8926 h -2.1724 v 2.8926 h -2.3491 v 2.8013 h 2.3491 v 2.4539 c -0.0745,0.0876 -0.57517,0.25517 -0.71856,0.37772 -0.84483,0.72205 -1.4364,1.4938 -1.6962,2.5602 -0.17879,0.73405 -0.16398,1.4848 -0.12609,2.2327 0.013,0.25658 -0.0853,0.35349 -0.33382,0.374 -0.29227,0.0241 -0.58032,0.0876 -0.79984,0.31158 -0.0668,0.0681 -0.1424,0.0793 -0.23904,0.0726 -0.87157,-0.0602 -1.7267,-0.26535 -2.6088,-0.25047 -1.0195,0.0172 -2.0305,0.075 -3.0367,0.25326 -1.0526,0.18653 -2.0707,0.46283 -3.0406,0.92419 -0.48752,0.2319 -0.91971,0.67423 -1.574,0.33652 -0.40809,-0.21064 -0.49593,-0.23632 -0.25454,-0.64174 0.45702,-0.76761 0.56499,-1.551 0.15503,-2.3681 -0.26639,-0.53093 -0.84953,-0.88269 -1.3384,-0.82463 -0.51061,0.0607 -1.1758,0.5934 -1.2747,1.103 -0.10949,0.5644 -0.19606,1.1449 0.0728,1.7022 0.0986,0.20423 0.0903,0.31021 -0.20025,0.31468 -0.3972,0.006 -0.78278,-0.0895 -1.1782,-0.0801 -0.40692,0.01 -0.48543,-0.08 -0.34589,-0.46619 0.1467,-0.406 0.19342,-0.8197 0.097,-1.2245 -0.13127,-0.55086 -0.37466,-1.0791 -0.95664,-1.2766 -1.1096,-0.37658 -1.7634,0.40976 -1.9348,1.3566 -0.0961,0.53074 -0.0578,1.0706 0.21797,1.5633 0.10237,0.18292 0.0175,0.2709 -0.1501,0.35333 -0.18133,0.0892 -0.38259,0.0674 -0.56476,0.14351 -0.33607,0.14044 -0.42952,0.0795 -0.43703,-0.30023 -0.0102,-0.5157 -0.10916,-1.0012 -0.47108,-1.3893 -0.6387,-0.68489 -1.42,-0.72022 -1.953,-0.15278 -0.71628,0.76259 -0.77424,1.7923 -0.21132,2.6954 0.28861,0.46303 0.28886,0.46159 -0.13354,0.82271 -0.0575,0.0492 -0.0998,0.11592 -0.15614,0.16677 -0.35884,0.32389 -0.45151,0.30642 -0.70776,-0.1209 -0.20229,-0.33734 -0.46815,-0.5962 -0.86896,-0.68062 -0.38112,-0.0803 -0.75422,-0.0688 -1.0639,0.19478 -0.6147,0.52304 -0.83625,1.1871 -0.73089,1.9915 0.0622,0.47506 0.21227,0.88929 0.57921,1.1914 0.1847,0.15204 0.19334,0.31158 0.12502,0.4912 -0.06,0.15781 -0.1561,0.30357 -0.24792,0.44721 -0.11969,0.1872 -0.23997,0.18729 -0.4579,0.0843 -0.63966,-0.30243 -1.5426,-0.17008 -1.8916,0.61418 -0.19921,0.4476 -0.2838,0.91209 -0.24142,1.4058 0.0421,0.49059 0.19497,0.98949 0.59421,1.2171 0.48742,0.27791 0.60661,0.56342 0.50618,1.0879 -0.0817,0.42678 -0.0216,0.44887 -0.45144,0.43579 -0.36012,-0.0109 -0.69756,0.0877 -0.92867,0.33789 -0.5784,0.62609 -0.75291,1.3532 -0.50083,2.1981 0.21587,0.72358 0.72617,1.198 1.4649,1.1617 0.3742,-0.0184 0.56172,0.093 0.59816,0.44391 0.004,0.0394 0.0184,0.10295 0.0293,0.14098 0.12077,0.42144 0.0653,0.5101 -0.37968,0.54431 -0.24188,0.0186 -0.43885,0.12393 -0.60677,0.27227 -0.60196,0.53175 -0.79917,1.2299 -0.67923,1.9922 0.10315,0.65544 0.49601,1.1837 1.1436,1.3513 0.52826,0.13671 1.0662,0.005 1.41,-0.52096 0.0909,-0.13911 0.19922,-0.15915 0.28577,0.0321 0.11651,0.25752 0.25963,0.50295 0.37841,0.75953 0.10081,0.21775 0.0588,0.35789 -0.22178,0.35531 -0.35903,-0.003 -0.64275,0.16122 -0.87362,0.42662 -0.69123,0.79463 -0.67939,2.2327 0.0627,2.9716 0.39727,0.39564 0.99765,0.49437 1.5022,0.18076 0.39436,-0.24514 0.66588,-0.58005 0.74808,-1.0534 0.0174,-0.10018 0.0472,-0.2252 0.18222,-0.24976 0.12421,-0.0226 0.17639,0.0756 0.22378,0.15997 0.2025,0.36073 0.557,0.63819 0.57882,1.1011 0.005,0.10765 0.10737,0.21185 0.16845,0.31556 0.4504,0.76462 0.9451,1.4998 1.5295,2.1681 0.39625,0.45314 0.76778,0.95247 1.3529,1.1819 0.54512,0.21378 0.87304,0.23061 1.1519,-0.3606 0.10567,-0.22406 0.17745,-0.44384 0.15491,-0.69374 -0.0136,-0.15085 0.0364,-0.28881 0.18268,-0.35472 0.14727,-0.0664 0.30106,0.009 0.37815,0.10763 0.38396,0.49234 0.98134,0.65736 1.4663,0.99226 0.0626,0.0432 0.0968,0.0585 0.15468,-0.0201 0.25024,-0.3397 0.52996,-0.66327 0.6546,-1.0752 0.17131,-0.56623 -0.17853,-1.5136 -0.6741,-1.8623 -0.30828,-0.21694 -1.1532,-0.34615 -1.4303,-0.10686 -0.29882,0.25812 -0.47453,0.54868 -0.47264,0.95091 0.002,0.36989 -0.15974,0.50523 -0.49366,0.44746 -0.38056,-0.0658 -0.82443,-0.59836 -0.83327,-0.9876 -0.0152,-0.66773 0.46847,-1.0248 0.88602,-1.4179 0.0871,-0.082 0.17428,-0.15513 0.24539,-0.25521 0.59826,-0.84195 0.26412,-1.4446 -0.31281,-2.1679 -0.31705,-0.39745 -0.77685,-0.65142 -1.1321,-1.0019 -0.50931,-0.50259 -0.87014,-1.1454 -1.1947,-1.7775 -0.51313,-0.99934 -0.93609,-2.0618 -1.1049,-3.1698 -0.18012,-1.1822 -0.25902,-2.3994 0.11369,-3.5727 0.19567,-0.61604 0.40998,-1.2283 0.71441,-1.8083 0.43954,-0.83745 0.97263,-1.5968 1.6717,-2.2342 0.545,-0.49682 1.1295,-0.95387 1.8372,-1.181 1.2087,-0.38797 2.4716,-0.47969 3.7273,-0.601 0.30952,-0.0299 0.33095,0.0897 0.2482,0.34338 -0.20456,0.62729 -0.42812,1.252 -0.575,1.8935 -0.15812,0.69067 -0.30801,1.3965 -0.33643,2.1007 -0.0556,1.3773 -0.18656,2.7614 0.13871,4.1331 0.0797,0.33626 0.14119,0.68551 0.18471,1.0356 0.0893,0.71856 0.13259,1.4423 0.22022,2.1577 0.18976,1.5492 0.10798,3.0527 -0.44861,4.5164 -0.0802,0.21087 -0.0231,0.29501 0.17366,0.35431 0.79222,0.23873 1.5791,0.49844 2.3372,0.82805 0.31182,0.1356 0.77316,0.21115 0.64898,0.75457 -0.008,0.0359 0.0248,0.0834 0.044,0.12285 0.092,0.1892 0.19799,0.35922 0.39368,0.47065 0.25217,0.1436 0.4975,0.30315 0.72854,0.47852 0.1414,0.10734 0.24868,0.27313 0.1547,0.4578 -0.10784,0.2119 -0.26323,0.11127 -0.41654,0.0301 -0.49371,-0.26155 -1.0031,-0.46655 -1.5818,-0.40924 -0.32171,0.0319 -0.58378,0.21591 -0.60097,0.5051 -0.0233,0.39205 -0.19284,0.68408 -0.48849,0.92115 -0.16819,0.13486 -0.13835,0.2367 0.0617,0.28844 0.23241,0.0601 0.32476,0.21861 0.43011,0.42998 0.32439,0.65074 0.80389,1.1828 1.7294,0.69504 0.33121,-0.17455 0.58583,-0.44721 0.90954,-0.62429 0.11157,-0.061 0.23855,-0.14636 0.35229,-0.0371 0.1309,0.12579 0.009,0.24222 -0.0609,0.34589 -0.51185,0.75728 -1.154,1.3431 -2.0611,1.596 -0.62233,0.17347 -1.2419,0.33281 -1.8914,0.16566 -0.85507,-0.22003 -1.6023,-0.60429 -2.1914,-1.2956 -0.26782,-0.31429 -0.43729,-0.39507 -0.60022,0.14106 -0.21475,0.70671 -0.58015,1.2555 -1.3712,1.47 -0.86903,0.23564 -1.669,0.17773 -2.4416,-0.28097 -0.11349,-0.0674 -0.23385,-0.12348 -0.37326,-0.10567 -0.051,0.007 -0.118,-0.0152 -0.13909,0.0522 -0.0159,0.0508 -0.001,0.0937 0.0434,0.14255 0.86584,0.94565 1.3704,2.1112 1.8984,3.2492 0.50572,1.09 0.85983,2.2511 1.2916,3.3738 0.19869,0.51662 0.36924,1.0431 0.53827,1.5702 0.0644,0.2009 0.15517,0.31385 0.39515,0.36438 0.24023,0.0506 0.4487,-0.009 0.67109,-0.0208 0.54666,-0.03 1.0962,-0.0115 1.6404,-0.04 0.84277,-0.0441 1.6881,-0.0372 2.5287,-0.0513 0.65775,-0.011 1.3316,0.006 1.9982,0.0658 0.80908,0.0722 1.626,-0.0217 2.4376,-0.009 1.4915,0.023 2.9816,0.12352 4.473,0.16253 1.0773,0.0282 2.1602,-0.043 3.2311,0.0832 0.89819,0.10589 1.7967,0.0233 2.6958,0.10545 0.82513,0.0754 1.6622,-1.2e-4 2.4954,0.0102 1.2104,0.015 2.4211,-0.007 3.6308,-0.0497 1.6838,-0.0591 3.3679,0.0151 5.0517,0.0581 0.80454,0.0205 1.6061,-0.0418 2.4152,0.0329 1.0274,0.0949 2.0661,0.0671 3.0998,0.0947 0.84104,0.0225 1.6825,0.0384 2.5226,0.0824 0.45914,0.024 0.91685,0.0683 1.375,0.10768 0.29021,0.0249 0.48941,-0.0297 0.60481,-0.35382 0.28795,-0.80881 0.61434,-1.6042 0.93476,-2.4012 0.36376,-0.90484 0.71774,-1.8119 1.1646,-2.6838 0.2464,-0.48074 0.50021,-0.96565 0.67045,-1.4906 0.19546,-0.60266 0.53671,-1.1441 0.86772,-1.6848 0.0667,-0.10901 0.30027,-0.1856 0.1625,-0.33271 -0.0928,-0.0991 -0.25083,0.0634 -0.38014,0.1072 -0.0102,0.003 -0.0185,0.012 -0.0282,0.0171 -0.77332,0.40427 -1.5604,0.70808 -2.4695,0.57102 -0.61399,-0.0926 -1.0842,-0.33963 -1.392,-0.89248 -0.14466,-0.25976 -0.22768,-0.54255 -0.35907,-0.80588 -0.15078,-0.30219 -0.23819,-0.30379 -0.49668,-0.062 -0.49822,0.46606 -1.0305,0.8902 -1.6985,1.0895 -0.58231,0.17373 -1.1491,0.28356 -1.7788,0.0889 -0.5496,-0.16991 -1.0991,-0.29965 -1.5769,-0.63746 -0.4884,-0.34527 -0.83755,-0.81201 -1.1622,-1.3012 -0.0517,-0.0778 -0.11331,-0.16109 -0.0251,-0.26775 0.0978,-0.11832 0.17888,-0.0153 0.26294,0.005 0.19993,0.0479 0.33711,0.18409 0.47428,0.33196 0.51283,0.55295 1.2397,0.70371 1.7755,0.40401 0.17732,-0.0992 0.2489,-0.26868 0.36719,-0.40731 0.20611,-0.2415 0.26154,-0.61267 0.66223,-0.68825 0.19919,-0.0376 0.15235,-0.19907 0.0154,-0.28258 -0.30208,-0.18425 -0.4048,-0.4836 -0.47392,-0.79394 -0.11448,-0.51413 -0.50598,-0.79084 -1.0345,-0.70283 -0.43536,0.0725 -0.82323,0.27231 -1.2169,0.45588 -0.10658,0.0497 -0.22265,0.0785 -0.31256,0.002 -0.0951,-0.0812 -0.0545,-0.2045 -0.0262,-0.31106 0.0321,-0.12088 0.0997,-0.20226 0.21707,-0.26978 0.26237,-0.151 0.53514,-0.28497 0.77316,-0.47999 0.27751,-0.22738 0.49277,-0.45562 0.3515,-0.85901 -0.068,-0.19423 -0.0366,-0.36886 0.20719,-0.46942 0.69125,-0.28522 1.3964,-0.53469 2.1255,-0.6863 0.5204,-0.10822 0.66614,-0.20704 0.4792,-0.63006 -0.29305,-0.66307 -0.35212,-1.3684 -0.3636,-2.0621 -0.0175,-1.0612 0.0116,-2.1294 0.1934,-3.1807 0.18928,-1.0946 0.42384,-2.1814 0.61186,-3.2762 0.18193,-1.0593 0.16338,-2.1372 0.0806,-3.1974 -0.10022,-1.2832 -0.31142,-2.5603 -0.76253,-3.7825 -0.13528,-0.36657 -0.0376,-0.44626 0.35848,-0.43608 0.84571,0.0217 1.6649,0.21803 2.4959,0.33894 0.87581,0.12743 1.6576,0.47213 2.3136,1.0373 0.84587,0.72876 1.5554,1.5877 2.0404,2.6068 0.40313,0.84721 0.66809,1.7391 0.89682,2.6508 0.23413,0.93328 0.12142,1.8409 -0.0832,2.7343 -0.23806,1.0397 -0.57017,2.0585 -1.1094,2.9952 -0.4228,0.73441 -0.82828,1.4854 -1.4594,2.0637 -0.38422,0.35202 -0.80768,0.66157 -1.156,1.0541 -0.70799,0.79775 -0.79714,1.6999 0.0595,2.4761 0.19295,0.17484 0.36122,0.37805 0.53257,0.57536 0.26744,0.30797 0.31058,0.71324 0.11794,1.0542 -0.1302,0.23044 -0.29027,0.43314 -0.51658,0.58201 -0.0981,0.0645 -0.1872,0.18494 -0.30733,0.122 -0.1272,-0.0666 -0.0746,-0.20916 -0.0697,-0.33039 0.0142,-0.3546 -0.0122,-0.69589 -0.31514,-0.95286 -0.35949,-0.30495 -1.37,-0.28073 -1.7279,0.11065 -0.74948,0.81961 -0.77933,1.8499 -0.0342,2.721 0.0862,0.10079 0.17342,0.085 0.26156,0.0501 0.44473,-0.176 0.85337,-0.42199 1.2592,-0.67149 0.10828,-0.0666 0.19182,-0.2209 0.33878,-0.14438 0.1269,0.0661 0.12383,0.21521 0.13621,0.34947 0.0231,0.25073 0.061,0.49281 0.24709,0.69632 0.31742,0.34722 0.87585,0.18991 1.2849,-0.0818 0.73199,-0.48635 1.2749,-1.1536 1.7926,-1.851 0.35757,-0.48172 0.7334,-0.95739 0.98942,-1.4947 0.19065,-0.40017 0.4232,-0.75545 0.68839,-1.1017 0.14817,-0.19343 0.23881,-0.15145 0.31261,0.0421 0.10142,0.266 0.21557,0.52056 0.37956,0.75875 0.32319,0.46938 1.1517,0.66245 1.6489,0.37788 0.46869,-0.26825 0.68962,-0.68728 0.85872,-1.183 0.23018,-0.67475 -0.17159,-2.0989 -1.0407,-2.3202 -0.54457,-0.13866 -0.53188,-0.18844 -0.33995,-0.7242 0.2061,-0.57522 0.31878,-0.60122 0.756,-0.17391 0.0314,0.0306 0.0594,0.065 0.0922,0.0939 0.35942,0.31675 1.0334,0.34165 1.4413,0.0971 0.75584,-0.45314 0.88814,-1.1671 0.84192,-1.9502 -0.0279,-0.4733 -0.23405,-0.87738 -0.57908,-1.2153 -0.23152,-0.22677 -0.5111,-0.33542 -0.81403,-0.37737 -0.23078,-0.0319 -0.25085,-0.1502 -0.23298,-0.33855 0.0612,-0.64484 0.14905,-0.7209 0.81106,-0.74175 0.41993,-0.0132 0.78908,-0.17038 1.039,-0.51801 0.55716,-0.77476 0.65394,-1.6159 0.18513,-2.4488 z m -16.013,-6.5479 c 0.31475,0.38686 0.38213,0.58629 0.3942,1.1667 0.0126,0.60622 -0.41834,1.2274 -1.007,1.3826 -0.24594,0.0648 -0.49659,-0.0623 -0.69696,-0.20814 -0.2104,-0.15321 -0.3957,-0.36947 -0.46077,-0.61574 -0.21012,-0.79528 -0.17005,-1.4293 0.60312,-2.0043 0.31474,-0.23405 0.86194,-0.0966 1.1674,0.27881 z m -1.6724,-2.4164 c 0.32252,0.35548 0.43441,0.64429 0.44139,1.1343 0.005,0.69543 -0.34843,1.1756 -0.93198,1.5001 -0.30845,0.17148 -0.86019,-0.0918 -1.1422,-0.50129 -0.54111,-0.78588 -0.37511,-1.6202 0.25956,-2.2424 0.37329,-0.36588 0.99539,-0.30714 1.3732,0.10928 z m -3.5982,-0.59183 c 0.003,-0.66608 0.38604,-1.1159 0.8946,-1.1064 0.27105,0.005 0.46357,0.16596 0.59885,0.35141 0.32935,0.45151 0.26429,1.2199 -0.10098,1.656 -0.29745,0.35512 -1.0667,0.23147 -1.2443,-0.21301 -0.0919,-0.22978 -0.20949,-0.46433 -0.14811,-0.68806 z m -1.9174,-2.0137 c 0.31662,-0.38249 0.63196,-0.44137 1.0354,-0.22697 0.42508,0.22591 0.66304,0.76263 0.53367,1.2226 -0.10951,0.38934 -0.2922,0.70479 -0.70084,0.88038 -0.30546,0.13124 -0.52797,0.0505 -0.73591,-0.14074 -0.26421,-0.24293 -0.46192,-0.52734 -0.39006,-0.90641 -0.0543,-0.32811 0.0667,-0.59793 0.25777,-0.82881 z m -1.4417,-0.546 c 0.41152,-10e-4 0.71396,0.33538 0.71337,0.79358 -7e-4,0.54969 -0.28761,0.91737 -0.71442,0.91554 -0.38004,-0.002 -0.69301,-0.36742 -0.68835,-0.80448 0.006,-0.54542 0.27878,-0.90354 0.6894,-0.90461 z m -1.9229,0.266 c 0.28334,0.0124 0.60403,0.40088 0.60778,0.73623 0.004,0.32782 -0.34836,0.72339 -0.63107,0.71821 -0.39289,-0.007 -0.5571,-0.31686 -0.58254,-0.67485 0.002,-0.38814 0.31639,-0.79225 0.60583,-0.77956 z m -3.606,21.702 c 0.82056,-0.49078 1.6445,-0.97608 2.4753,-1.4493 0.0828,-0.0471 0.1216,-0.11845 0.19022,-0.16668 0.16152,-0.1135 0.4154,-0.12098 0.4628,-0.36444 0.0447,-0.22946 -0.14755,-0.38119 -0.23434,-0.56382 -0.46488,-0.9783 -0.66927,-2.0169 -0.84289,-3.0796 -0.17563,-1.0748 -0.28571,-2.1527 -0.34697,-3.2345 -0.0833,-1.4719 -0.13458,-2.9461 -0.11835,-4.4221 0.0125,-1.1324 0.0983,-2.2598 0.23316,-3.3812 0.0948,-0.78843 0.27653,-1.5664 0.41836,-2.3492 0.0155,-0.0855 0.0238,-0.1723 0.0356,-0.25849 0.0565,-0.41458 0.25177,-0.54414 0.66954,-0.45193 0.0961,0.0212 0.19656,0.0281 0.29535,0.0315 0.94353,0.0325 1.842,0.30246 2.7264,0.5857 0.55155,0.17663 1.091,0.4172 1.6083,0.70382 0.67733,0.37521 1.3149,0.79557 1.8744,1.3283 0.78699,0.74935 1.249,1.6562 1.3704,2.7495 0.0797,0.71735 0.0142,1.4177 -0.0408,2.1306 -0.0769,0.99527 -0.39726,1.9261 -0.63535,2.8777 -0.14102,0.56356 -0.37929,1.1045 -0.59526,1.6472 -0.30975,0.77822 -0.60837,1.562 -0.98384,2.3122 -0.43843,0.87594 -0.87523,1.7528 -1.4096,2.5768 -0.19828,0.30573 -0.36145,0.63567 -0.57484,0.92976 -0.19671,0.27109 -0.0781,0.47186 0.10745,0.63972 0.56186,0.50833 1.1282,1.0133 1.7156,1.4915 0.55709,0.4536 1.0799,0.95243 1.7096,1.3156 0.23265,0.13417 0.42424,0.3378 0.65032,0.48573 0.14767,0.0966 0.1467,0.23888 0.16021,0.37188 0.008,0.0771 -0.0332,0.18776 -0.12002,0.22012 -0.097,0.0362 -0.13978,-0.0623 -0.19886,-0.1234 -0.41452,-0.42858 -0.90325,-0.71651 -1.5146,-0.72763 -0.35434,-0.006 -0.54386,0.26135 -0.69423,0.52369 -0.13428,0.23425 -0.19095,0.49871 -0.5113,0.58995 -0.10282,0.0293 -0.22063,0.23437 -0.0226,0.3695 0.17082,0.11658 0.23142,0.28614 0.24759,0.48035 0.0252,0.30255 0.12609,0.57125 0.31782,0.81292 0.25523,0.32174 0.67742,0.44185 1.0699,0.28936 0.33053,-0.12843 0.66412,-0.24822 0.97563,-0.42133 0.0753,-0.0418 0.16261,-0.0819 0.24578,-0.085 0.11856,-0.004 0.2563,0.0138 0.32393,0.12206 0.0789,0.12621 -0.0555,0.18644 -0.12332,0.26519 -0.50589,0.58746 -1.1167,0.97791 -1.8724,1.2118 -0.40891,0.12658 -0.79848,0.15076 -1.2071,0.17684 -0.96499,0.0116 -1.8463,-0.22539 -2.6021,-0.85843 -0.23063,-0.19317 -0.39749,-0.43931 -0.58524,-0.66607 -0.15793,-0.1907 -0.24496,-0.20104 -0.42744,-0.0197 -0.6055,0.60169 -1.2917,1.119 -2.1308,1.3101 -1.0374,0.23621 -1.9952,-0.004 -2.8103,-0.72502 -0.27556,-0.24368 -0.58649,-0.44958 -0.77822,-0.77717 -0.0375,-0.0641 -0.12737,-0.11309 -0.0922,-0.19764 0.0452,-0.10884 0.15438,-0.0544 0.23376,-0.0569 0.18156,-0.006 0.33832,0.0721 0.45855,0.20197 0.24984,0.2698 0.56653,0.42541 0.90449,0.54052 0.70107,0.23882 1.1991,-0.35133 1.3247,-0.90941 0.0579,-0.25742 0.17037,-0.41311 0.37697,-0.53259 0.0718,-0.0415 0.17022,-0.0426 0.16712,-0.16856 -0.003,-0.1346 -0.10415,-0.22779 -0.1877,-0.24175 -0.28423,-0.0475 -0.34191,-0.26708 -0.37907,-0.47617 -0.14423,-0.81175 -0.54225,-0.84819 -1.2775,-0.69742 -0.34661,0.0711 -0.68587,0.19097 -0.92784,0.49756 -0.0741,0.0939 -0.24729,0.1987 -0.37538,0.0805 -0.14594,-0.13471 -0.14455,-0.3378 -0.0103,-0.47587 0.18822,-0.19359 0.41028,-0.35509 0.62292,-0.52393 0.34204,-0.27148 0.60925,-0.56391 0.41886,-1.052 -0.0848,-0.21747 0.0945,-0.32562 0.23992,-0.41256 z m -2.4338,-19.161 c 0.30794,-0.62696 0.84212,-0.87803 1.48,-0.60804 0.38487,0.1629 0.42212,0.5809 0.52806,0.93074 0.0279,0.0921 0.0152,0.19636 0.0212,0.29505 0.002,0.60739 -0.23882,1.078 -0.77515,1.3803 -0.20348,0.11467 -0.41198,0.13131 -0.62589,0.0106 -0.63829,-0.35994 -1.0022,-1.2474 -0.62824,-2.0087 z m 0.64741,2.4554 c 0.29616,-0.15546 0.83459,0.0164 1.0574,0.38314 0.4395,0.72325 0.40613,1.6449 -0.32749,2.2351 -0.30988,0.24926 -0.78432,0.18763 -1.0194,-0.0321 -0.35303,-0.32994 -0.55272,-0.7273 -0.55853,-1.1574 0.0119,-0.68277 0.29852,-1.1403 0.84802,-1.4288 z m -0.15859,5.8286 c -0.60883,-0.38076 -0.89014,-1.097 -0.60492,-1.989 0.19723,-0.61685 0.89799,-0.92474 1.449,-0.61205 0.46335,0.2629 0.60355,0.75734 0.58372,1.2482 -0.0137,0.33917 -0.0339,0.70065 -0.29237,1.0082 -0.13501,0.16065 -0.30102,0.24121 -0.45291,0.35123 -0.1611,0.11671 -0.11587,0.20149 0.003,0.27017 0.53452,0.30942 0.71696,0.78745 0.68626,1.3754 0.008,0.38846 -0.063,0.75131 -0.35828,1.0332 -0.53302,0.50885 -1.099,0.46929 -1.4977,-0.14439 -0.46556,-0.71673 -0.48067,-1.7202 0.49855,-2.2478 0.0792,-0.0427 0.16566,-0.0693 0.16049,-0.18056 -0.005,-0.11647 -0.11598,-0.0757 -0.17469,-0.11245 z m -0.87223,7.4589 c 0.0523,-0.39142 0.33555,-0.81077 0.89144,-1.0433 0.0716,-0.0299 0.23222,0.0206 0.21381,-0.14034 -0.0123,-0.10745 -0.10156,-0.15705 -0.19932,-0.19601 -0.84734,-0.33757 -0.92275,-1.7922 -0.43423,-2.3406 0.23295,-0.26146 0.51493,-0.41122 0.85396,-0.37645 0.4521,0.0463 0.70878,0.34354 0.88345,0.75313 0.24989,0.5859 0.0722,1.0993 -0.21259,1.6019 -0.13669,0.24121 -0.3803,0.35254 -0.62843,0.44713 -0.0675,0.0257 -0.16441,0.006 -0.17675,0.11304 -0.0132,0.11391 0.0921,0.10955 0.15404,0.13693 0.66402,0.29361 0.97599,1.0172 0.7565,1.736 -0.14962,0.49003 -0.34893,0.89819 -0.92729,1.0271 -0.29564,0.0659 -0.46729,-0.0765 -0.62983,-0.22189 -0.4215,-0.37717 -0.56398,-0.76122 -0.54477,-1.4966 z m -4.6651,-17.91 c 0.0577,-0.32051 0.35838,-0.5429 0.68897,-0.5096 0.26926,0.0271 0.4701,0.34047 0.4628,0.79616 -0.005,0.14138 -0.0815,0.33245 -0.21159,0.49564 -0.11776,0.14768 -0.29067,0.19471 -0.47111,0.15729 -0.30632,-0.0635 -0.54033,-0.54363 -0.46906,-0.93946 z m -1.221,-0.83908 c 0.24136,0.0215 0.59855,0.3634 0.575,0.61254 -0.0288,0.30536 -0.0271,0.62622 -0.27627,0.88032 -0.30686,0.31295 -0.65985,0.29534 -0.91238,-0.0677 -0.12981,-0.18665 -0.20219,-0.38409 -0.19398,-0.56776 0.004,-0.58101 0.32099,-0.90074 0.80761,-0.85732 z m -3.1666,1.0845 c 0.0519,-0.40845 0.25366,-0.74387 0.69116,-0.91294 0.48184,-0.18618 0.90651,0.2175 1.065,0.56806 0.22504,0.49789 0.0976,0.95328 -0.21203,1.367 -0.1441,0.19254 -0.36132,0.27352 -0.64396,0.28151 -0.15977,0.0329 -0.28978,-0.10151 -0.42489,-0.20635 -0.35708,-0.27707 -0.53019,-0.6647 -0.47526,-1.0973 z m -1.6305,0.38369 c 0.37558,-0.35988 1.0711,-0.0835 1.2129,0.48273 0.0932,0.37201 0.0957,0.75134 -0.0933,1.1157 -0.23588,0.45487 -0.73271,0.58808 -1.1369,0.27937 -0.29579,-0.22594 -0.47052,-0.51303 -0.41514,-0.91176 -0.0706,-0.40989 0.16644,-0.71119 0.4324,-0.96604 z m -2.2082,1.319 c 0.41537,-0.32429 0.88479,-0.26835 1.2899,0.13372 0.27357,0.27153 0.48031,0.77385 0.48086,1.2719 -0.0491,0.3137 -0.13748,0.73098 -0.44064,1.0333 -0.39407,0.39293 -0.84222,0.59425 -1.4243,0.0882 -0.73699,-0.6407 -0.59356,-1.9902 0.0942,-2.5272 z m -1.2239,2.166 c 0.44772,-0.0595 0.69869,0.22532 0.92774,0.50399 0.22151,0.26949 0.34191,0.60778 0.31808,0.94872 0.0255,0.80796 -0.75516,1.5905 -1.4124,1.3969 -0.49848,-0.14682 -0.86123,-0.56671 -0.92853,-1.2894 -0.0598,-0.64239 0.38732,-1.4661 1.0951,-1.5602 z m -1.9203,4.5904 c 0.0154,-0.59294 0.15335,-1.0412 0.55305,-1.394 0.44035,-0.38862 0.93616,-0.37218 1.3862,0.0934 0.72602,0.75112 0.57255,1.951 -0.26626,2.512 -0.59702,0.39931 -1.3614,-0.0523 -1.5806,-0.74877 -0.0544,-0.17295 -0.11852,-0.3559 -0.0924,-0.46263 z m 0.43569,2.8159 c 0.12628,-0.53778 0.54985,-0.87787 1.0578,-1.0226 0.35241,-0.10044 0.65478,0.1642 0.86345,0.43034 0.59157,0.75447 0.42711,1.7117 -0.22202,2.3418 -0.15248,0.14802 -0.37808,0.21106 -0.62755,0.18332 -0.21003,0.0423 -0.37867,-0.0885 -0.53733,-0.21726 -0.55582,-0.45099 -0.68792,-1.0616 -0.53436,-1.7156 z m 0.74328,4.5532 c -0.29481,-0.65048 -0.26775,-1.3015 0.17343,-1.8861 0.3331,-0.44143 1.0087,-0.50096 1.4532,-0.17828 0.42658,0.30968 0.47855,0.74524 0.53338,1.1927 -0.0372,0.49704 -0.12068,0.95061 -0.5615,1.2701 -0.5662,0.41031 -1.2818,0.30042 -1.5986,-0.39837 z m 2.6692,4.3311 c -0.18593,0.14708 -0.4338,0.28427 -0.67361,0.36608 -0.34002,0.11601 -0.61836,-0.0912 -0.86381,-0.2892 -0.58511,-0.47209 -0.75904,-1.0853 -0.65619,-1.8295 0.10236,-0.74057 0.47193,-1.2594 1.1803,-1.4831 0.47424,-0.14976 1.1551,0.18811 1.4244,0.68339 0.1835,0.33757 0.2673,0.69191 0.27354,1.0724 0.0153,0.60528 -0.22758,1.1184 -0.68464,1.48 z m 3.4227,12.031 c -0.29472,0.13476 -0.58847,0.27203 -0.88687,0.39821 -1.2262,0.51844 -2.4511,1.0394 -3.6673,1.5811 -0.32887,0.14646 -0.65068,0.35339 -1.0476,0.35835 -0.36076,-0.0395 -0.67902,-0.2418 -1.0291,-0.34873 -0.4645,-0.14189 -0.92494,-0.29831 -1.3821,-0.46263 -0.52722,-0.18952 -1.0484,-0.3957 -1.5731,-0.59229 -0.52438,-0.19649 -1.0498,-0.39012 -1.5749,-0.58482 -0.0103,-0.004 -0.0226,-0.003 -0.0317,-0.009 -0.13678,-0.0809 -0.38017,-0.0808 -0.38921,-0.25259 -0.01,-0.19078 0.23362,-0.13966 0.36161,-0.18886 0.73761,-0.28352 1.4926,-0.52422 2.2207,-0.82946 0.75763,-0.31762 1.5472,-0.54274 2.307,-0.85285 0.34596,-0.14118 0.71135,-0.23717 1.0642,-0.36781 0.23863,-0.0884 0.47842,0.0924 0.71406,0.15843 1.0737,0.30102 2.109,0.7241 3.1778,1.0359 0.56045,0.16353 1.0951,0.41374 1.6774,0.50749 0.10693,0.0172 0.26131,0.0489 0.27473,0.18882 0.0125,0.13053 -0.10234,0.2087 -0.21538,0.26039 z m -2.4697,-6.2869 c -0.13583,-0.12339 -0.30035,-0.21957 -0.3955,-0.38008 -0.0553,-0.0933 -0.20458,-0.17761 -0.1034,-0.31036 0.0896,-0.11751 0.21943,-0.12029 0.35747,-0.0612 0.30816,0.13192 0.61774,0.26124 0.93091,0.38063 0.72498,0.27636 1.2808,0.14348 1.556,-0.6133 0.11716,-0.32224 0.0687,-0.74341 0.48856,-0.91264 0.0651,-0.0262 0.0726,-0.14578 0.007,-0.16422 -0.42855,-0.12064 -0.5099,-0.53436 -0.72959,-0.83178 -0.30644,-0.41481 -0.65893,-0.51527 -1.1444,-0.35339 -0.34585,0.11533 -0.66124,0.27499 -0.92859,0.52941 -0.1041,0.0991 -0.23199,0.25653 -0.38059,0.0611 -0.1266,-0.16647 -0.10983,-0.33627 0.0873,-0.44234 0.21384,-0.11505 0.27631,-0.36409 0.45745,-0.49874 0.55553,-0.41302 1.1409,-0.78866 1.675,-1.2271 0.63065,-0.51759 1.2993,-0.99379 1.8585,-1.5956 0.18487,-0.19894 0.0385,-0.38099 -0.052,-0.5371 -0.65564,-1.1312 -1.2772,-2.2785 -1.8024,-3.4781 -0.40546,-0.92585 -0.72685,-1.8804 -1.0648,-2.8312 -0.27262,-0.76693 -0.49267,-1.5481 -0.66614,-2.336 -0.22583,-1.0259 -0.38731,-2.0779 -0.33043,-3.1296 0.0505,-0.93313 0.25066,-1.8639 0.83074,-2.6331 0.42995,-0.57018 0.95318,-1.0622 1.567,-1.4486 0.97256,-0.61216 2.0068,-1.0558 3.1248,-1.3494 1.0466,-0.27482 2.0995,-0.35489 3.1684,-0.37577 0.28298,-0.006 0.41582,0.16729 0.4565,0.38679 0.17945,0.96823 0.38236,1.9359 0.48625,2.9133 0.10316,0.97093 0.2567,1.9439 0.20473,2.5782 -0.0769,2.2627 -0.27101,4.1589 -0.62259,6.0436 -0.1277,0.68447 -0.2315,1.3812 -0.40747,2.0486 -0.31243,1.1851 -0.59148,2.3994 -1.3657,3.4083 -0.18468,0.24065 0.0284,0.34586 0.19911,0.45216 1.001,0.62348 1.9984,1.253 3.0052,1.867 0.21715,0.13245 0.25341,0.2757 0.21457,0.51691 -0.0669,0.41563 0.25909,0.6694 0.48599,0.95018 0.095,0.11751 0.20426,0.23284 0.35045,0.3148 0.12589,0.0706 0.24058,0.19897 0.26609,0.36138 0.0151,0.096 0.0105,0.19768 -0.0682,0.27576 -0.10814,0.10736 -0.18427,-0.007 -0.25849,-0.0484 -0.25481,-0.14093 -0.44528,-0.36882 -0.741,-0.46801 -0.31591,-0.10594 -0.63137,-0.12313 -0.9421,-0.0858 -0.26406,0.0317 -0.44935,0.24924 -0.48941,0.50886 -0.0512,0.33134 -0.20891,0.56453 -0.48566,0.73039 -0.20695,0.12405 -0.22851,0.22099 0.0214,0.32087 0.20923,0.0836 0.24008,0.29248 0.29583,0.48035 0.14546,0.49 0.38168,0.89385 0.92755,1.0309 0.42003,0.10547 0.72586,-0.15993 1.0618,-0.31161 0.26584,-0.12001 0.49662,-0.31248 0.77795,-0.41096 0.0931,-0.0326 0.18266,-0.0446 0.24269,0.0271 0.0738,0.0881 -0.006,0.16024 -0.063,0.22819 -0.6906,0.82402 -1.537,1.391 -2.6229,1.5199 -0.85826,0.10192 -1.5734,-0.27549 -2.2257,-0.77643 -0.2918,-0.22409 -0.56678,-0.4775 -0.79691,-0.77071 -0.28124,-0.35829 -0.27106,-0.51818 0.0882,-0.81834 0.47783,-0.39919 0.71327,-0.89649 0.61046,-1.5152 -0.0844,-0.50794 -0.30165,-0.96489 -0.7305,-1.2751 -0.47962,-0.34693 -1.2553,-0.18733 -1.5525,0.32304 -0.35668,0.61261 -0.46941,1.4863 0.2535,2.04 0.25522,0.19549 0.48025,0.46443 0.72632,0.69116 0.12186,0.11227 0.14598,0.21958 0.0636,0.34566 -0.4107,0.62905 -0.92131,1.1108 -1.6398,1.4213 -0.42763,0.18478 -0.85194,0.26208 -1.2822,0.28934 -1.1245,0.0713 -2.1158,-0.29225 -2.9556,-1.0552 z m 20.873,7.167 c -0.39339,0.62844 -1.1924,0.96017 -1.8697,0.70548 -0.5052,-0.18999 -0.97579,-0.48083 -1.1209,-1.0766 -0.005,-0.0213 -0.01,-0.0431 -0.0174,-0.0636 -0.0983,-0.26003 -0.17685,-0.41648 -0.53923,-0.24295 -0.93759,0.44893 -1.9062,0.8337 -2.8664,1.2346 -0.72922,0.30451 -1.4664,0.58978 -2.196,0.89356 -0.25553,0.10639 -0.51573,0.0879 -0.73265,-0.0306 -0.69513,-0.37965 -1.4328,-0.66147 -2.1536,-0.98153 -0.73265,-0.32538 -1.4314,-0.72172 -2.1868,-1.0039 -0.19212,-0.0718 -0.4079,-0.17836 -0.59627,-0.30622 -0.16481,-0.11185 -0.31691,-0.13908 -0.40878,0.15108 -0.235,0.74237 -0.91933,1.2463 -1.5987,1.2365 -0.59001,-0.008 -1.4252,-0.56085 -1.6087,-1.0854 -0.0452,-0.12931 -0.0197,-0.28336 -0.0307,-0.50895 -0.0795,-0.68336 0.37368,-1.1121 0.9921,-1.3754 0.57183,-0.24353 1.1552,-0.2113 1.6593,0.2155 0.256,0.21675 0.51521,0.44071 0.59927,0.78536 0.0316,0.12961 0.11303,0.10395 0.19585,0.11724 0.25262,0.0406 0.47399,-0.0766 0.69808,-0.15036 0.86074,-0.2833 1.722,-0.57102 2.5716,-0.88005 0.6304,-0.22927 1.2916,-0.37414 1.8988,-0.66585 0.59506,-0.2859 1.092,0.0171 1.6209,0.23063 0.84153,0.33986 1.6726,0.70577 2.5286,1.0117 0.61063,0.21821 1.2161,0.46436 1.7923,0.75979 0.28557,0.14644 0.33787,0.004 0.39456,-0.17809 0.25086,-0.8079 1.2524,-1.2673 2.0819,-1.0225 0.70013,0.20659 1.0107,0.68786 1.1294,1.3345 0.0577,0.31411 -0.0668,0.62409 -0.237,0.89603 z m 5.4457,-2.267 c 0.45647,-0.0991 0.90804,-0.22254 1.3573,-0.35094 0.086,-0.0246 0.16773,-0.0406 0.27549,-0.0474 0.14062,-0.0274 0.28323,0.0508 0.41892,0.10741 1.2989,0.54232 2.6,1.0805 3.8855,1.6532 0.46521,0.20725 0.93857,0.39107 1.4064,0.58991 0.1002,0.0426 0.23723,0.0906 0.23889,0.20046 0.002,0.1174 -0.1336,0.13858 -0.24152,0.17465 -0.68809,0.22994 -1.3831,0.44009 -2.0704,0.66924 -0.73989,0.24668 -1.4934,0.44974 -2.2278,0.71275 -0.40881,0.14637 -0.85719,0.20964 -1.2346,0.41031 -0.74622,0.39681 -1.2866,-0.12624 -1.8526,-0.38907 -0.36811,-0.17093 -0.7536,-0.31699 -1.118,-0.50693 -0.93345,-0.48655 -1.8963,-0.91675 -2.8476,-1.3691 -0.20561,-0.0978 -0.41149,-0.195 -0.61829,-0.2902 -0.11267,-0.0519 -0.16573,-0.13173 -0.15186,-0.25945 0.0143,-0.1315 0.12085,-0.10148 0.19855,-0.12486 0.65159,-0.196 1.3098,-0.37896 1.9691,-0.5342 0.87337,-0.20561 1.7355,-0.45539 2.6125,-0.64578 z m 0.25854,-10.037 c -0.0452,0.0308 -0.0884,0.0774 -0.13808,0.0866 -0.30389,0.0566 -0.5845,-0.11848 -0.92941,-0.013 -0.22348,0.0683 -0.5141,-0.26797 -0.68874,-0.56056 -0.41929,-0.70244 -0.48234,-1.388 -0.10909,-2.1342 0.42257,-0.84482 1.5178,-1.0444 2.1797,-0.36614 0.31403,0.32177 0.53844,0.96877 0.49473,1.5177 0.0459,0.60476 -0.26476,1.0989 -0.80908,1.4695 z m 1.5895,-5.3814 c 7e-5,0.75222 -0.33333,1.2498 -0.92467,1.5088 -0.28564,0.12508 -0.52086,0.0504 -0.73757,-0.093 -0.97537,-0.64507 -0.8554,-2.1262 0.0233,-2.6773 0.32876,-0.20619 0.80715,-0.19164 1.0842,0.10843 0.30265,0.32779 0.62514,0.6758 0.55469,1.153 z m -0.30771,-1.6942 c -0.12278,0.0432 -0.23554,0.0693 -0.34442,0.019 -0.67472,-0.3115 -0.96427,-0.65283 -1.0089,-1.6676 0.007,-0.35763 0.22935,-0.78377 0.61241,-1.089 0.62703,-0.49959 1.2493,-0.0765 1.5702,0.54754 0.43715,0.84997 0.004,1.8969 -0.82937,2.19 z m 0.84891,-3.547 c -0.6664,0.41589 -1.2753,0.0466 -1.5846,-0.55915 -0.31023,-0.60753 -0.24424,-1.2101 0.16297,-1.7793 0.50872,-0.71112 1.3875,-0.67462 1.8436,0.17391 0.15157,0.28201 0.2262,0.59252 0.17212,0.91143 0.018,0.52706 -0.1697,0.98825 -0.59411,1.2531 z"
           inkscape:connector-curvature="0"
           style="fill:#ff0000;stroke-width:0.032619" />
      </g>
    </g>
  </g>
</svg>
